<svg id="Cart" xmlns="http://www.w3.org/2000/svg" width="41" height="36.031" viewBox="0 0 41 36.031">
  <defs>
    <style>
      .cls-1 {
        fill: #121d46;
        fill-rule: evenodd;
      }
    </style>
  </defs>
  <path id="Vector" class="cls-1" d="M1147.21,56.024h21.78a1.206,1.206,0,0,0,1.16-.871l4.8-16.817a1.194,1.194,0,0,0-1.15-1.531h-29.36l-0.86-3.864a1.2,1.2,0,0,0-1.17-.941h-7.21a1.2,1.2,0,0,0,0,2.4h6.24c0.16,0.685,4.11,18.491,4.34,19.516a3.6,3.6,0,0,0,1.43,6.91h21.78a1.2,1.2,0,1,0,0-2.4h-21.78a1.2,1.2,0,0,1,0-2.4h0Zm25-16.817-4.12,14.414h-19.91l-3.21-14.414h27.24Z" transform="translate(-1134 -32)"/>
  <path id="Vector-2" data-name="Vector" class="cls-1" d="M1146.01,64.431a3.605,3.605,0,1,0,3.61-3.6A3.611,3.611,0,0,0,1146.01,64.431Zm3.61-1.2a1.2,1.2,0,1,1-1.21,1.2A1.2,1.2,0,0,1,1149.62,63.23Z" transform="translate(-1134 -32)"/>
  <path id="Vector-3" data-name="Vector" class="cls-1" d="M1162.99,64.431a3.605,3.605,0,1,0,3.6-3.6A3.6,3.6,0,0,0,1162.99,64.431Zm3.6-1.2a1.2,1.2,0,1,1-1.2,1.2A1.2,1.2,0,0,1,1166.59,63.23Z" transform="translate(-1134 -32)"/>
</svg>
