<svg xmlns="http://www.w3.org/2000/svg" width="19" height="27" viewBox="0 0 19 27">
  <defs>
    <style>
      .cls-1 {
        fill: #fdd444;
        fill-rule: evenodd;
      }
    </style>
  </defs>
  <path id="Vector" class="cls-1" d="M225.5,587a9.454,9.454,0,0,0-9.5,9.385c0,6.5,9.509,17.615,9.509,17.615S235,602.569,235,596.385A9.454,9.454,0,0,0,225.5,587Zm2.866,12.133a4.093,4.093,0,0,1-5.732,0,3.974,3.974,0,0,1,0-5.663,4.088,4.088,0,0,1,5.732,0A3.974,3.974,0,0,1,228.366,599.133Z" transform="translate(-216 -587)"/>
</svg>
