<svg width="15" height="15" viewBox="0 0 15 15" fill="none" xmlns="http://www.w3.org/2000/svg">
<path d="M4.98246 1.71617C7.27069 -0.572058 10.995 -0.572058 13.2832 1.71617C15.5709 4.0049 15.5709 7.72867 13.2832 10.0174C11.2455 12.0546 8.07179 12.2729 5.78505 10.6821C5.73693 10.9098 5.62681 11.127 5.44973 11.3041L2.11733 14.6365C1.63171 15.1212 0.846974 15.1212 0.363832 14.6365C-0.121296 14.1514 -0.121296 13.3667 0.363832 12.883L3.69623 9.54964C3.87232 9.37404 4.09008 9.26342 4.31776 9.21531C2.72597 6.92807 2.94423 3.7549 4.98246 1.71617ZM6.03456 8.9653C7.74292 10.6737 10.5232 10.6737 12.2311 8.9653C13.9385 7.25694 13.9385 4.47713 12.2311 2.76877C10.5232 1.06091 7.74292 1.06091 6.03456 2.76877C4.3262 4.47713 4.3262 7.25694 6.03456 8.9653Z" fill="#121D46"/>
</svg>
