<svg width="20" height="20" viewBox="0 0 20 20" fill="none" xmlns="http://www.w3.org/2000/svg">
<path d="M13.1266 4.5368C11.1781 4.16612 9.20199 4.16612 7.25304 4.5368C6.40061 4.72665 5.3282 5.7543 5.11853 6.58089C4.76981 8.18026 4.76981 9.80159 5.11853 11.401C5.3282 12.2276 6.40061 13.2552 7.25304 13.4451C7.25325 13.4451 7.25347 13.4451 7.25368 13.4452C7.29166 13.4526 7.31934 13.4855 7.31934 13.5242V15.8672C7.31934 15.9843 7.46227 16.042 7.54364 15.9572L8.65652 14.815C8.65652 14.815 9.54335 13.9046 9.70281 13.741C9.71839 13.7249 9.73992 13.7163 9.76222 13.7169C10.8858 13.748 12.0106 13.6573 13.1266 13.4451C13.979 13.2552 15.0519 12.2276 15.2611 11.401C15.6102 9.80163 15.6102 8.18031 15.2611 6.58093C15.0518 5.7543 13.9794 4.72665 13.1266 4.5368ZM13.1563 11.5203C12.9858 11.8822 12.7377 12.1834 12.3799 12.3756C12.2789 12.4299 12.1583 12.4474 12.0443 12.4825C11.9133 12.4427 11.7884 12.4159 11.6724 12.3678C10.4706 11.8692 9.36447 11.2259 8.48832 10.2398C7.99008 9.67906 7.60008 9.04599 7.27047 8.37602C7.11415 8.0583 6.98241 7.72813 6.84814 7.40012C6.72565 7.101 6.90604 6.79197 7.09594 6.5666C7.27413 6.35509 7.50343 6.19321 7.75175 6.07391C7.94557 5.98079 8.13676 6.03448 8.27831 6.19876C8.58433 6.55394 8.86541 6.92728 9.09302 7.33899C9.23299 7.59222 9.19458 7.90176 8.94092 8.0741C8.87927 8.11599 8.82309 8.16515 8.76566 8.21246C8.71529 8.25392 8.66789 8.29581 8.63336 8.35195C8.57025 8.45463 8.56723 8.57582 8.60788 8.6875C8.92069 9.54715 9.44794 10.2156 10.3132 10.5757C10.4517 10.6333 10.5907 10.7003 10.7502 10.6817C11.0174 10.6505 11.1038 10.3575 11.291 10.2044C11.474 10.0548 11.7078 10.0528 11.9049 10.1776C12.102 10.3023 12.2931 10.4363 12.4831 10.5716C12.6695 10.7045 12.8552 10.8344 13.0272 10.9859C13.1925 11.1315 13.2494 11.3226 13.1563 11.5203ZM11.6045 8.71892C11.5299 8.72026 11.5592 8.7188 11.5876 8.71798C11.4674 8.71376 11.402 8.64298 11.3891 8.5279C11.3796 8.44382 11.3722 8.35862 11.3521 8.27683C11.3126 8.11573 11.227 7.96642 11.0915 7.86771C11.0275 7.82108 10.955 7.78707 10.8791 7.7652C10.7826 7.73735 10.6824 7.74501 10.5861 7.72142C10.4816 7.69584 10.4238 7.61116 10.4402 7.51309C10.4551 7.42384 10.542 7.35419 10.6395 7.36125C11.249 7.40525 11.6846 7.72034 11.7467 8.43788C11.7511 8.48851 11.7563 8.54198 11.7451 8.59042C11.7268 8.66916 11.6705 8.71014 11.6137 8.71759C11.6183 8.71768 11.6174 8.71806 11.6045 8.71892ZM11.2255 7.07784C11.0385 6.98627 10.8363 6.92935 10.6313 6.89543C10.5417 6.88062 10.4511 6.87162 10.3611 6.85909C10.252 6.84394 10.1938 6.77441 10.1989 6.66691C10.2038 6.56617 10.2774 6.49371 10.3872 6.49991C10.7479 6.5204 11.0964 6.59837 11.4171 6.76821C12.0694 7.11361 12.4419 7.65882 12.5507 8.38682C12.5556 8.4198 12.5635 8.45248 12.566 8.48558C12.5722 8.5673 12.576 8.64914 12.5823 8.7569C12.5797 8.77653 12.5784 8.82268 12.5669 8.86616C12.5252 9.02399 12.2859 9.04375 12.2308 8.88446C12.2145 8.83719 12.212 8.78342 12.2119 8.73253C12.2114 8.39957 12.139 8.06695 11.9711 7.77725C11.7985 7.47959 11.5348 7.22929 11.2255 7.07784ZM13.2409 9.32776C13.1149 9.32927 13.0582 9.22384 13.05 9.11083C13.0338 8.88713 13.0226 8.66244 12.9917 8.4406C12.829 7.26955 11.8952 6.30071 10.7296 6.09281C10.5542 6.06152 10.3747 6.05329 10.197 6.03465C10.0847 6.02285 9.93761 6.01605 9.91273 5.87644C9.89185 5.75938 9.99065 5.66617 10.1021 5.66019C10.1324 5.65855 10.1629 5.65993 10.1933 5.66006C11.7029 5.70238 10.2855 5.66333 10.1974 5.66027C11.7676 5.70604 13.0568 6.74875 13.3332 8.30154C13.3804 8.56635 13.3972 8.8371 13.4181 9.10587C13.4269 9.21888 13.3629 9.3263 13.2409 9.32776Z" fill="#FDD444"/>
<path d="M0.380005 0V19.62H20V0H0.380005ZM16.3951 11.6576L16.3912 11.6731C16.0778 12.9401 14.6648 14.2997 13.3672 14.5825L13.3526 14.5855C12.3034 14.7857 11.2465 14.8856 10.19 14.8856C9.87906 14.8856 9.5681 14.8759 9.25731 14.8585L7.82434 16.3481C7.46959 16.7175 6.84577 16.466 6.84577 15.9541V14.5398C5.59662 14.1831 4.28889 12.886 3.98843 11.673L3.98498 11.6575C3.59752 9.88812 3.59752 8.09372 3.98498 6.3243L3.98843 6.3088C4.30227 5.04179 5.71523 3.68221 7.01238 3.39936L7.02745 3.39635C9.12579 2.99597 11.2538 2.99597 13.3526 3.39635L13.3672 3.39936C14.6648 3.68221 16.0778 5.04179 16.3912 6.3088L16.3951 6.3243C16.7825 8.09377 16.7825 9.88816 16.3951 11.6576Z" fill="#FDD444"/>
</svg>
