<svg width="21" height="20" viewBox="0 0 21 20" fill="none" xmlns="http://www.w3.org/2000/svg">
<path d="M10.4055 4.10376C7.26802 4.10376 4.71548 6.6563 4.71548 9.79377C4.71548 10.887 5.02619 11.9486 5.61393 12.8638L5.75518 13.0838L5.20175 15.0494L7.23543 14.5259L7.44518 14.654C8.33437 15.1968 9.35805 15.4838 10.4055 15.4838C13.543 15.4838 16.0955 12.9313 16.0955 9.79377C16.0955 6.6563 13.543 4.10376 10.4055 4.10376ZM13.8947 11.5426L13.8237 11.8742C13.7436 12.2483 13.5214 12.5792 13.1991 12.7854C12.7921 13.0457 12.2646 13.1735 11.5941 12.9839C9.5133 12.3956 8.33652 11.0179 7.70512 10.1569C7.07369 9.29584 6.82975 8.4348 6.98758 7.73164C7.09345 7.26005 7.43812 6.8982 7.65368 6.71097C7.75928 6.61927 7.89627 6.5726 8.03589 6.58022L8.48053 6.60446C8.5681 6.60924 8.64533 6.66331 8.67982 6.74395L9.32753 8.25941C9.36214 8.34039 9.34755 8.43399 9.28999 8.50059L8.72618 9.15282C8.68046 9.20569 8.6725 9.28103 8.7047 9.34307C9.44726 10.7734 10.8005 11.3402 11.2045 11.4822C11.2734 11.5064 11.3497 11.4835 11.3943 11.4257L11.9842 10.6609C12.0498 10.5759 12.1655 10.5474 12.2631 10.5924L13.7658 11.2851C13.8637 11.3302 13.9172 11.4372 13.8947 11.5426Z" fill="#FDD444"/>
<path d="M0.58667 0V19.62H20.2067V0H0.58667ZM10.4055 16.6462C9.22818 16.6462 8.07534 16.3448 7.05549 15.7726L3.53545 16.6787L4.4965 13.2654C3.87849 12.2155 3.55311 11.0209 3.55311 9.79375C3.55311 6.01532 6.62708 2.94134 10.4055 2.94134C14.184 2.94134 17.2579 6.01532 17.2579 9.79375C17.2579 13.5722 14.184 16.6462 10.4055 16.6462Z" fill="#FDD444"/>
</svg>
